<?xml version="1.0" encoding="UTF-8"?><svg id="Layer_4" xmlns="http://www.w3.org/2000/svg" viewBox="0 0 363 354"><defs><style>.cls-1,.cls-2{stroke-width:3px;}.cls-1,.cls-2,.cls-3{stroke:#000;stroke-miterlimit:10;}.cls-1,.cls-3{fill:none;}.cls-4{font-family:Chonburi-Regular, Chonburi;font-size:33.6px;}</style></defs><polygon points="182.75 82.55 186.98 92.46 173.86 92.26 174.36 59.45 182.75 82.55"/><polygon points="119.69 111.74 106.27 106.34 112.81 118.88 119.69 111.74"/><polygon points="234.33 115.24 248.15 111.02 240.57 122.96 234.33 115.24"/><polygon points="110.06 224.53 103.85 237.59 116.77 231.84 110.06 224.53"/><polygon points="229.42 236.27 243 241.25 236.08 228.92 229.42 236.27"/><circle class="cls-1" cx="175.48" cy="173.2" r="82.02"/><polygon points="163.71 263.61 159.73 253.6 172.85 254.13 171.53 286.91 163.71 263.61"/><text class="cls-4" transform="translate(161.2 47.64)"><tspan x="0" y="0">N</tspan></text><text class="cls-4" transform="translate(162.19 318.26)"><tspan x="0" y="0">S</tspan></text><text class="cls-4" transform="translate(294.81 184.32)"><tspan x="0" y="0">E</tspan></text><text class="cls-4" transform="translate(23.58 185.39)"><tspan x="0" y="0">W</tspan></text><path class="cls-2" d="M174.55,108.31c-36.24,0-65.62,29.38-65.62,65.62s29.38,65.62,65.62,65.62,65.62-29.38,65.62-65.62-29.38-65.62-65.62-65.62Zm26.78,72.49l-28.33,27.2-27.51-28.04c-21.42-21.42,6.09-48.92,27.5-27.5,23.19-23.19,51.52,5.15,28.34,28.34Z"/><polygon class="cls-3" points="165.57 83.21 161.33 92.1 174.45 91.9 174 62.49 165.57 83.21"/><polygon class="cls-3" points="181.69 263.95 186.4 255.28 173.29 254.78 172.16 284.23 181.69 263.95"/><polygon points="83.19 163.92 93.01 159.49 93.09 172.61 60.28 172.82 83.19 163.92"/><polygon class="cls-3" points="83.68 181.9 92.56 186.2 92.46 173.08 62.98 173.31 83.68 181.9"/><polygon points="267.38 182.11 257.61 186.65 257.39 173.53 290.19 172.97 267.38 182.11"/><polygon class="cls-3" points="266.69 164.14 257.77 159.93 258.02 173.05 287.48 172.5 266.69 164.14"/></svg>