<?xml version="1.0" encoding="UTF-8"?><svg id="Layer_1" xmlns="http://www.w3.org/2000/svg" viewBox="0 0 32 32"><defs><style>.cls-1{fill:#fff;}</style></defs><path class="cls-1" d="M16,.64C7.52,.64,.64,7.52,.64,16s6.88,15.36,15.36,15.36,15.36-6.88,15.36-15.36S24.48,.64,16,.64Zm4.12,21.99c-.55,.27-1.12,.48-1.71,.63-.54,.12-1.09,.18-1.65,.18-.67,0-1.27-.09-1.78-.26-.49-.15-.93-.4-1.32-.73-.33-.27-.59-.62-.76-1.01-.14-.36-.21-.88-.21-1.56v-5.22h-1.63v-2.1c.57-.19,1.07-.46,1.48-.82,.41-.35,.74-.78,.99-1.28,.25-.5,.42-1.13,.52-1.9h2.09v3.76h3.49v2.33h-3.49v3.82c0,.86,.04,1.42,.14,1.66,.09,.25,.27,.46,.5,.59,.33,.2,.7,.3,1.12,.3,.75,0,1.48-.25,2.22-.74v2.35h0Z"/></svg>