<?xml version="1.0" encoding="UTF-8"?><svg id="Layer_1" xmlns="http://www.w3.org/2000/svg" viewBox="0 0 32 32"><path d="M8,29.33c-.73,0-1.36-.26-1.88-.78-.52-.52-.78-1.15-.78-1.88V10.67c0-.73,.26-1.36,.78-1.88,.52-.52,1.15-.78,1.88-.78h2.67c0-1.47,.52-2.72,1.57-3.77,1.04-1.04,2.3-1.57,3.77-1.57s2.72,.52,3.77,1.57c1.04,1.04,1.57,2.3,1.57,3.77h2.67c.73,0,1.36,.26,1.88,.78,.52,.52,.78,1.15,.78,1.88V26.67c0,.73-.26,1.36-.78,1.88-.52,.52-1.15,.78-1.88,.78H8Zm0-2.67H24V10.67h-2.67v2.67c0,.38-.13,.69-.38,.95-.26,.26-.57,.38-.95,.38s-.69-.13-.95-.38c-.26-.26-.38-.57-.38-.95v-2.67h-5.33v2.67c0,.38-.13,.69-.38,.95-.26,.26-.57,.38-.95,.38s-.69-.13-.95-.38c-.26-.26-.38-.57-.38-.95v-2.67h-2.67V26.67ZM13.33,8h5.33c0-.73-.26-1.36-.78-1.88-.52-.52-1.15-.78-1.88-.78s-1.36,.26-1.88,.78c-.52,.52-.78,1.15-.78,1.88Zm-5.33,18.67v0Z"/></svg>