<?xml version="1.0" encoding="UTF-8"?><svg id="Layer_1" xmlns="http://www.w3.org/2000/svg" viewBox="0 0 32 32"><path d="M14.67,28l-4.23-3.8c-1.6-1.44-2.97-2.73-4.12-3.87-1.14-1.13-2.09-2.2-2.83-3.2-.74-1-1.29-1.97-1.63-2.9-.34-.93-.52-1.91-.52-2.93,0-2.09,.7-3.83,2.1-5.22,1.4-1.39,3.14-2.08,5.23-2.08,1.16,0,2.26,.24,3.3,.73,1.04,.49,1.94,1.18,2.7,2.07,.76-.89,1.66-1.58,2.7-2.07,1.04-.49,2.14-.73,3.3-.73,1.8,0,3.31,.51,4.53,1.52,1.22,1.01,2.06,2.28,2.5,3.82h-2.83c-.4-.89-.99-1.56-1.77-2-.78-.44-1.59-.67-2.43-.67-1.13,0-2.11,.31-2.93,.92-.82,.61-1.59,1.42-2.3,2.42h-1.53c-.69-1-1.47-1.81-2.35-2.42-.88-.61-1.84-.92-2.88-.92-1.27,0-2.36,.44-3.28,1.32-.92,.88-1.38,1.98-1.38,3.32,0,.73,.16,1.48,.47,2.23,.31,.76,.87,1.63,1.67,2.62,.8,.99,1.89,2.14,3.27,3.47,1.38,1.32,3.13,2.92,5.27,4.78,.58-.51,1.26-1.1,2.03-1.77,.78-.67,1.4-1.22,1.87-1.67l.3,.3,.65,.65,.65,.65,.3,.3c-.49,.44-1.11,.99-1.87,1.65-.76,.66-1.42,1.24-2,1.75l-1.93,1.73Zm9.33-5.33v-4h-4v-2.67h4v-4h2.67v4h4v2.67h-4v4h-2.67Z"/></svg>