<?xml version="1.0" encoding="UTF-8"?><svg id="Layer_1" xmlns="http://www.w3.org/2000/svg" viewBox="0 0 32 32"><path d="M13.03,16c-.8,0-1.47-.3-2-.9-.53-.6-.74-1.3-.63-2.1l.43-3.27c.18-1.27,.76-2.32,1.73-3.15,.98-.83,2.12-1.25,3.43-1.25s2.46,.42,3.43,1.25c.98,.83,1.56,1.88,1.73,3.15l.43,3.27c.11,.8-.1,1.5-.63,2.1-.53,.6-1.2,.9-2,.9h-5.93Zm0-2.67h5.93l-.43-3.2c-.09-.62-.37-1.13-.85-1.53-.48-.4-1.04-.6-1.68-.6s-1.21,.2-1.68,.6c-.48,.4-.76,.91-.85,1.53l-.43,3.2Zm-7.7,13.33v-3.73c0-.76,.19-1.45,.58-2.08,.39-.63,.9-1.12,1.55-1.45,1.38-.69,2.78-1.21,4.2-1.55,1.42-.34,2.87-.52,4.33-.52s2.91,.17,4.33,.52c1.42,.34,2.82,.86,4.2,1.55,.64,.33,1.16,.82,1.55,1.45,.39,.63,.58,1.33,.58,2.08v3.73H5.33Zm2.67-2.67H24v-1.07c0-.24-.06-.47-.18-.67-.12-.2-.28-.36-.48-.47-1.2-.6-2.41-1.05-3.63-1.35-1.22-.3-2.46-.45-3.7-.45s-2.48,.15-3.7,.45c-1.22,.3-2.43,.75-3.63,1.35-.2,.11-.36,.27-.48,.47-.12,.2-.18,.42-.18,.67v1.07Z"/></svg>